<?xml version="1.0" standalone="no"?>
<!DOCTYPE svg PUBLIC "-//W3C//DTD SVG 20010904//EN"
 "http://www.w3.org/TR/2001/REC-SVG-20010904/DTD/svg10.dtd">
<svg version="1.0" xmlns="http://www.w3.org/2000/svg"
 width="88.000000pt" height="88.000000pt" viewBox="0 0 88.000000 88.000000"
 preserveAspectRatio="xMidYMid meet">
<metadata>
Created by potrace 1.14, written by Peter Selinger 2001-2017
</metadata>
<g transform="translate(0.000000,88.000000) scale(0.100000,-0.100000)"
fill="#000000" stroke="none">
<path d="M0 440 l0 -440 440 0 440 0 0 440 0 440 -440 0 -440 0 0 -440z m673
219 c13 -16 17 -40 17 -103 0 -111 -11 -130 -78 -134 l-52 -3 0 -90 c0 -82 2
-91 20 -96 53 -14 7 -23 -115 -23 -122 0 -168 9 -115 23 17 4 20 14 20 66 l0
61 -48 0 c-45 0 -49 -2 -65 -35 -19 -39 -23 -95 -7 -95 6 0 10 -4 10 -10 0 -5
-25 -10 -56 -10 l-56 0 29 28 c21 19 50 79 101 208 74 186 80 208 61 220 -24
15 15 19 163 17 143 -2 154 -4 171 -24z"/>
<path d="M447 664 c-4 -4 -7 -103 -7 -221 l0 -213 25 0 25 0 -2 217 c-3 187
-5 218 -18 221 -9 1 -19 0 -23 -4z"/>
<path d="M560 550 l0 -110 30 0 30 0 0 110 0 110 -30 0 -30 0 0 -110z"/>
<path d="M323 488 l-41 -103 40 -3 c22 -2 42 -1 44 1 3 2 3 50 2 106 l-3 102
-42 -103z"/>
</g>
</svg>
